<?xml version="1.0" encoding="utf-8"?>
<svg viewBox="0 384.54 900 216.46" xmlns="http://www.w3.org/2000/svg">
  <path d="M0 406L150 388L300 422L450 428L600 432L750 406L900 434L900 601L750 601L600 601L450 601L300 601L150 601L0 601Z" fill="#9a3412"/>
  <path d="M0 475L150 439L300 437L450 470L600 468L750 485L900 467L900 601L750 601L600 601L450 601L300 601L150 601L0 601Z" fill="#a73811"/>
  <path d="M0 504L150 529L300 509L450 492L600 506L750 508L900 513L900 601L750 601L600 601L450 601L300 601L150 601L0 601Z" fill="#b53c0f"/>
  <path d="M0 574L150 561L300 555L450 535L600 558L750 542L900 565L900 601L750 601L600 601L450 601L300 601L150 601L0 601Z" fill="#c2410c"/>
</svg>