<svg xmlns="http://www.w3.org/2000/svg" xmlns:xlink="http://www.w3.org/1999/xlink" id="visual" version="1.1" viewBox="0 186 900 265"><path d="M0 251L90 251L90 186L180 186L180 232L270 232L270 291L360 291L360 219L450 219L450 223L540 223L540 282L630 282L630 285L720 285L720 188L810 188L810 281L900 281L900 260L900 451L900 451L810 451L810 451L720 451L720 451L630 451L630 451L540 451L540 451L450 451L450 451L360 451L360 451L270 451L270 451L180 451L180 451L90 451L90 451L0 451Z" fill="#f97316"/><path d="M0 240L90 240L90 305L180 305L180 234L270 234L270 321L360 321L360 320L450 320L450 248L540 248L540 260L630 260L630 274L720 274L720 259L810 259L810 252L900 252L900 272L900 451L900 451L810 451L810 451L720 451L720 451L630 451L630 451L540 451L540 451L450 451L450 451L360 451L360 451L270 451L270 451L180 451L180 451L90 451L90 451L0 451Z" fill="#e76213"/><path d="M0 296L90 296L90 299L180 299L180 348L270 348L270 297L360 297L360 322L450 322L450 309L540 309L540 339L630 339L630 307L720 307L720 274L810 274L810 286L900 286L900 288L900 451L900 451L810 451L810 451L720 451L720 451L630 451L630 451L540 451L540 451L450 451L450 451L360 451L360 451L270 451L270 451L180 451L180 451L90 451L90 451L0 451Z" fill="#d5520f"/><path d="M0 348L90 348L90 376L180 376L180 340L270 340L270 376L360 376L360 367L450 367L450 381L540 381L540 374L630 374L630 335L720 335L720 358L810 358L810 334L900 334L900 360L900 451L900 451L810 451L810 451L720 451L720 451L630 451L630 451L540 451L540 451L450 451L450 451L360 451L360 451L270 451L270 451L180 451L180 451L90 451L90 451L0 451Z" fill="#c2410c"/></svg>